<svg xmlns="http://www.w3.org/2000/svg" width="24" height="24" viewBox="0 0 24 24" fill="none" stroke="#66FCF1" stroke-width="2" stroke-linecap="round" stroke-linejoin="round"><path d="M22 4s-.7 2.1-2 3.4c1.6 10-9.4 17.2-18 11.6 7.2.1 12-4.4 12-4.4-6-1.1-10.2-5.7-10.2-5.7 1.7.1 3.4 0 3.4 0-4.2-1.6-7.1-5.3-7.1-5.3 1.5.8 3 1.1 3 1.1-4.8-4.8 1-9.2 1-9.2 4.3 5.4 10.7 8.8 10.7 8.8 0-2.3 1.9-4.2 4.2-4.2 1.3 0 2.5.5 3.3 1.4 1-.2 2-.6 3-1.1-.3 1.1-1 2-1.9 2.6.9-.1 1.9-.4 2.8-.8-.6.9-1.3 1.7-2 2.4Z"></path></svg>
